<svg id="Camada_1" data-name="Camada 1" xmlns="http://www.w3.org/2000/svg" viewBox="0 0 249.6 32.8"><defs><style>.cls-1{fill:#fff;}</style></defs><title>logo3</title><g id="Camada_8" data-name="Camada 8"><path class="cls-1" d="M188.7,43.1l-3.3,18.4L169.2,44.2a5.6,5.6,0,0,0-2-1.4,3.9,3.9,0,0,0-1.6-.3,7.2,7.2,0,0,0-4.2,1.6,7.8,7.8,0,0,1,3.1,3.5,9.6,9.6,0,0,1,.4,3,8.2,8.2,0,0,1-4.4,7l-1.4.5v.2a6.1,6.1,0,0,1,3,2.1,7.1,7.1,0,0,1,1,5.1,10.2,10.2,0,0,1-1.9,4.9,9.9,9.9,0,0,1-5.4,3.5,12.3,12.3,0,0,1-2.1.5h9.7L166.7,56l16.2,17.3a4.4,4.4,0,0,0,3.6,1.7c2.8,0,5.6-1.7,6.3-5.9l4.7-26Z" transform="translate(-0.4 -42.2)"/></g><g id="Camada_7" data-name="Camada 7"><path class="cls-1" d="M43.9,63.9c0,5.3-2.7,10.7-15,10.7H.4L3.9,54.9H32.6c1.6,0,3.2-.6,3.2-2.5s-1.2-1.7-2.5-1.7H4.6L13,42.2H34.4c7,0,11.3,2.7,11.3,7.6A8.3,8.3,0,0,1,39.9,58C42.2,58.7,43.9,60.7,43.9,63.9Zm-31.2-2-.8,4.4H30.4c2.5,0,3.6-1,3.6-2.6s-.9-1.8-2.8-1.8Z" transform="translate(-0.4 -42.2)"/><path class="cls-1" d="M57.9,71.4l-3,3.1H43.3l2.1-12h14l-3,3.1H48.6L48.4,67h9.5l-2.6,2.8H47.9l-.3,1.6Z" transform="translate(-0.4 -42.2)"/><path class="cls-1" d="M72.2,71.4l-2.9,3.1H58.6l2.1-12h3.8l-1.6,8.9Z" transform="translate(-0.4 -42.2)"/><path class="cls-1" d="M88.6,62.5l-3,3.1H78.2L78,67.2h9.1l-2.8,2.9H77.4l-.7,4.4H72.9l2.2-12Z" transform="translate(-0.4 -42.2)"/><path class="cls-1" d="M105.7,67.4c0,4.9-3.3,7.3-10.1,7.3-5.2,0-7.8-1.6-7.8-5.1s3.2-7.3,10-7.3C103,62.3,105.7,63.9,105.7,67.4Zm-3.8.4c0-2-1.4-2.4-4.7-2.4s-5.7.7-5.7,3.8,1.4,2.4,4.6,2.4C101,71.6,101.9,70.8,101.9,67.8Z" transform="translate(-0.4 -42.2)"/><path class="cls-1" d="M123.5,74.5h-5l-2.1-3.2h-5.8l-.5,3.2h-3.8l1.1-6.1h10.5c1.3,0,2.3-.6,2.3-1.6s-.6-1.2-1.8-1.2H107.9l3-3.1h7.8c2.5,0,5.5.7,5.5,3.6a4.6,4.6,0,0,1-3.9,4.5,15,15,0,0,1,1.4,1.6Z" transform="translate(-0.4 -42.2)"/><path class="cls-1" d="M132.9,74.5h-8.1l1.4-7.5h3.7l-.8,4.4h4.4c2.2,0,4.1-1.3,4.1-3.2s-1.3-2.6-3.1-2.6h-8.1l2.9-3.1H135c3.8,0,6.4,2.1,6.4,5.1S137.5,74.5,132.9,74.5Z" transform="translate(-0.4 -42.2)"/><path class="cls-1" d="M209.4,71.5l-2.9,3.1H194.9L197,62.5h14l-3,3.2h-7.8l-.3,1.4h9.6l-2.6,2.8h-7.5l-.2,1.6Z" transform="translate(-0.4 -42.2)"/><path class="cls-1" d="M223.1,70.1a24.1,24.1,0,0,1-1.3-3.6l-2.6,3.6-2.5,3.4a2.8,2.8,0,0,1-2.3,1.3,1.7,1.7,0,0,1-1.8-1.7l-1.2-10.6h3.7l.4,4.2c.1,1.4.2,2.4.3,3.4.5-.9,1.1-1.8,2.2-3.4l2.2-3a2.5,2.5,0,0,1,2.4-1.4,1.7,1.7,0,0,1,1.9,1.4l1.1,3c.5,1.7.8,2.5,1.1,3.4a35.7,35.7,0,0,1,1.4-3.4l1.9-4.2h3.6l-5,10.6a2.5,2.5,0,0,1-2.4,1.7,1.8,1.8,0,0,1-1.8-1.3Z" transform="translate(-0.4 -42.2)"/><path class="cls-1" d="M244.9,67.3c2.7,0,4.1,1,4.1,2.8s-1.7,4.5-6,4.5H231.8l2.9-3.1h9.2c1,0,1.4-.3,1.4-1s-.4-.8-1.1-.8h-6.6c-2.8,0-4-1.1-4-2.9s1.7-4.3,5.9-4.3H250l-3,3.2h-8.3c-1,0-1.5.2-1.5,1s.4.6,1.2.6Z" transform="translate(-0.4 -42.2)"/></g></svg>